<svg width="52" height="52" viewBox="0 0 52 52" fill="none" xmlns="http://www.w3.org/2000/svg">
<path d="M33.6106 6.48203V4.33203H18.6106V6.48203H11.1106V47.332H41.1106V6.48203H33.6106ZM20.7535 6.48203H31.4677V8.63203H20.7535V6.48203ZM38.9677 45.182H13.2535V8.63203H18.6106V10.782H33.6106V8.63203H38.9677V45.182ZM21.8249 15.082H36.8249V17.232H21.8249V15.082ZM33.6106 21.532H21.8249V19.382H33.6106V21.532ZM21.8249 24.757H36.8249V26.907H21.8249V24.757ZM33.6106 31.207H21.8249V29.057H33.6106V31.207ZM21.8249 34.432H36.8249V36.582H21.8249V34.432ZM21.8249 38.732H33.6106V40.882H21.8249V38.732ZM18.6106 36.0445C18.6106 36.9314 17.8874 37.657 17.0035 37.657C16.1195 37.657 15.3963 36.9314 15.3963 36.0445C15.3963 35.1577 16.1195 34.432 17.0035 34.432C17.8874 34.432 18.6106 35.1577 18.6106 36.0445ZM18.6106 16.6945C18.6106 17.5814 17.8874 18.307 17.0035 18.307C16.1195 18.307 15.3963 17.5814 15.3963 16.6945C15.3963 15.8077 16.1195 15.082 17.0035 15.082C17.8874 15.082 18.6106 15.8077 18.6106 16.6945ZM18.6106 26.3695C18.6106 27.2564 17.8874 27.982 17.0035 27.982C16.1195 27.982 15.3963 27.2564 15.3963 26.3695C15.3963 25.4827 16.1195 24.757 17.0035 24.757C17.8874 24.757 18.6106 25.4827 18.6106 26.3695Z" fill="white"/>
</svg>
