<svg width="48" height="38" viewBox="0 0 48 38" fill="none" xmlns="http://www.w3.org/2000/svg">
<path d="M48 30.875V0H0V30.875H19.2V35.625H14.4V38H33.6V35.625H28.8V30.875H48ZM2.4 2.375H45.6V28.5H2.4V2.375ZM26.4 35.625H21.6V30.875H26.4V35.625ZM15.6 22.5625H4.8V11.875H15.6V22.5625ZM7.2 20.1875H13.2V14.25H7.2V20.1875ZM30 22.5625H18V11.875H30V22.5625ZM20.4 20.1875H27.6V14.25H20.4V20.1875ZM43.2 22.5625H32.4V11.875H43.2V22.5625ZM34.8 20.1875H40.8V14.25H34.8V20.1875ZM24 7.125H4.8V4.75H24V7.125ZM43.2 7.125H40.8V4.75H43.2V7.125ZM38.4 7.125H36V4.75H38.4V7.125Z" fill="white"/>
</svg>
