<svg width="52" height="52" viewBox="0 0 52 52" fill="none" xmlns="http://www.w3.org/2000/svg">
<path d="M25.5 47C13.6449 47 4 37.3551 4 25.5C4 13.6449 13.6449 4 25.5 4C37.3551 4 47 13.6449 47 25.5C47 37.3551 37.3551 47 25.5 47ZM25.5 6.15C14.8304 6.15 6.15 14.8304 6.15 25.5C6.15 36.1696 14.8304 44.85 25.5 44.85C36.1696 44.85 44.85 36.1696 44.85 25.5C44.85 14.8304 36.1696 6.15 25.5 6.15ZM34.4147 18.2897L22.275 30.4297L16.5853 24.7397L15.0644 26.2606L22.275 33.4703L35.9353 19.8103L34.4147 18.2897Z" fill="white"/>
</svg>
