<svg width="49" height="48" viewBox="0 0 49 48" fill="none" xmlns="http://www.w3.org/2000/svg">
<path d="M43.3003 38.994L36.1209 29.6196V15.9954C36.1209 9.37077 30.7426 3.99609 24.1135 3.99609C17.4844 3.99609 12.1061 9.37077 12.1061 15.9954V29.6196L4.92664 38.994H18.1848C18.6601 41.8188 21.1366 43.9937 24.1135 43.9937C27.0903 43.9937 29.5418 41.8188 30.0421 38.994H43.3003ZM14.1073 30.3695V15.9954C14.1073 10.4707 18.5851 5.99597 24.1135 5.99597C29.6419 5.99597 34.1196 10.4707 34.1196 15.9954V30.3695L38.9476 36.9941H9.27932L14.1073 30.3695ZM24.1135 41.9938C22.2623 41.9938 20.6864 40.7189 20.2361 38.994H27.9658C27.5406 40.7189 25.9646 41.9938 24.1135 41.9938Z" fill="white"/>
</svg>
