<svg width="32" height="31" viewBox="0 0 32 31" fill="none" xmlns="http://www.w3.org/2000/svg">
<path d="M24.7444 30.0222C24.6302 30.0222 24.5156 29.9982 24.4079 29.9492L15.7978 26.0278L7.18774 29.9492C6.91442 30.0737 6.59452 30.0374 6.35594 29.8537C6.11756 29.6704 5.99951 29.3703 6.04886 29.0733L7.60672 19.7077L0.582686 12.6697C0.367339 12.4538 0.290294 12.1354 0.383323 11.8447C0.476253 11.554 0.723569 11.3397 1.0241 11.2895L10.3935 9.72486L15.0846 1.10882C15.2271 0.846994 15.5009 0.684143 15.7985 0.684143C16.0961 0.684143 16.3701 0.847092 16.5126 1.10893L21.2023 9.72487L30.5716 11.2895C30.8721 11.3397 31.1194 11.554 31.2124 11.8447C31.3054 12.1354 31.2284 12.4538 31.013 12.6697L23.989 19.7077L25.5468 29.0733C25.5962 29.3703 25.4781 29.6704 25.2397 29.8537C25.0951 29.9649 24.9204 30.0222 24.7444 30.0222ZM15.7978 24.3176C15.9126 24.3176 16.0275 24.342 16.1344 24.3906L23.6913 27.8324L22.3155 19.5619C22.2724 19.3023 22.357 19.0378 22.5427 18.8516L28.7452 12.637L20.5441 11.2674C20.2975 11.2262 20.0835 11.0736 19.9638 10.8537L15.7984 3.20101L11.6318 10.8538C11.5122 11.0737 11.2981 11.2262 11.0516 11.2674L2.85053 12.637L9.05299 18.8516C9.23865 19.0378 9.32324 19.3023 9.28015 19.5619L7.90438 27.8324L15.4613 24.3906C15.5682 24.342 15.6831 24.3176 15.7978 24.3176Z" fill="#18837E"/>
</svg>
