<svg width="29" height="29" viewBox="0 0 29 29" fill="none" xmlns="http://www.w3.org/2000/svg">
<path d="M15.7083 20.1245C15.7083 20.8051 15.14 21.3691 14.4541 21.3691C13.7486 21.3691 13.1999 20.8246 13.1999 20.1245C13.1999 19.4243 13.7486 18.8798 14.4541 18.8798C15.14 18.8798 15.7083 19.4438 15.7083 20.1245ZM13.5527 11.7231V7.36681H15.3556V11.7231L14.8852 17.0906H14.0229L13.5527 11.7231ZM14.4541 1.76589C21.4561 1.76589 27.1527 7.41916 27.1527 14.368C27.1527 21.3168 21.4561 26.97 14.4541 26.97C7.45203 26.97 1.75544 21.3168 1.75544 14.368C1.75544 7.41916 7.45203 1.76589 14.4541 1.76589ZM14.4541 0.365662C6.66157 0.365662 0.344482 6.63472 0.344482 14.368C0.344482 22.1012 6.66157 28.3702 14.4541 28.3702C22.2466 28.3702 28.5637 22.1012 28.5637 14.368C28.5637 6.63472 22.2466 0.365662 14.4541 0.365662Z" fill="#9E2896"/>
</svg>
